<svg width="202" height="29" viewBox="0 0 202 29" fill="none" xmlns="http://www.w3.org/2000/svg">
<path d="M0.844 28H5.38V17.416H16.612V13.312H5.38V6.616H17.296V2.512H0.844V28ZM21.1199 10.72V21.772C21.1199 24.616 22.3799 28.432 27.4199 28.432C29.8679 28.432 31.7039 27.388 32.7119 25.228H32.7839V28H36.8879V10.72H32.5679V20.152C32.5679 22.816 31.1639 24.544 28.6079 24.544C26.5199 24.544 25.4399 23.104 25.4399 19.648V10.72H21.1199ZM46.1118 28V18.496C46.1118 16.192 47.2998 14.176 50.0718 14.176C52.1238 14.176 53.2398 15.58 53.2398 19.036V28H57.5598V16.948C57.5598 14.284 56.4078 10.288 51.2598 10.288C48.9918 10.288 47.0118 11.224 45.9678 13.492H45.8958V10.72H41.7918V28H46.1118ZM62.4636 28H66.7836V19.18H66.8556L73.7316 28H79.4556L71.5716 18.568L78.9876 10.72H73.4436L66.7836 17.884V0.783998H62.4636V28ZM90.3316 10.288C85.0756 10.288 80.9356 13.996 80.9356 19.36C80.9356 24.76 85.0396 28.432 90.3316 28.432C95.6236 28.432 99.7276 24.76 99.7276 19.36C99.7276 13.96 95.6236 10.288 90.3316 10.288ZM85.2556 19.36C85.2556 16.408 87.4156 14.176 90.2956 14.176C93.2476 14.176 95.4076 16.372 95.4076 19.36C95.4076 22.24 93.3556 24.544 90.3316 24.544C87.4156 24.544 85.2556 22.348 85.2556 19.36Z" fill="white"/>
<path d="M104.276 28H108.596V6.832H108.668L116.408 28H119.576L127.316 6.832H127.388V28H131.708V2.512H124.868L117.992 20.368L111.188 2.512H104.276V28ZM142.248 28.432C144.552 28.432 146.568 27.568 147.792 25.624H147.9V28H151.788V17.668C151.788 13.6 150.312 10.288 144.408 10.288C141.024 10.288 138.612 11.476 137.064 13.06L139.332 15.328C140.52 14.248 142.14 13.528 143.94 13.528C146.316 13.528 147.9 14.716 147.9 16.732V17.236H146.568C139.152 17.236 135.948 19.252 135.948 23.248C135.948 26.416 138.684 28.432 142.248 28.432ZM146.388 20.26H147.648V21.34C147.648 23.536 146.28 25.192 143.328 25.192C141.708 25.192 140.268 24.4 140.268 22.924C140.268 21.088 142.572 20.26 146.388 20.26ZM160.756 28V18.496C160.756 16.192 161.944 14.176 164.716 14.176C166.768 14.176 167.884 15.58 167.884 19.036V28H172.204V16.948C172.204 14.284 171.052 10.288 165.904 10.288C163.636 10.288 161.656 11.224 160.612 13.492H160.54V10.72H156.436V28H160.756ZM179.304 2.26C177.756 2.26 176.568 3.448 176.568 4.852C176.568 6.256 177.756 7.444 179.304 7.444C180.852 7.444 182.112 6.4 182.112 4.852C182.112 3.376 180.888 2.26 179.304 2.26ZM181.5 10.72H177.18V28H181.5V10.72ZM191.608 28.432C193.912 28.432 195.928 27.568 197.152 25.624H197.26V28H201.148V17.668C201.148 13.6 199.672 10.288 193.768 10.288C190.384 10.288 187.972 11.476 186.424 13.06L188.692 15.328C189.88 14.248 191.5 13.528 193.3 13.528C195.676 13.528 197.26 14.716 197.26 16.732V17.236H195.928C188.512 17.236 185.308 19.252 185.308 23.248C185.308 26.416 188.044 28.432 191.608 28.432ZM195.748 20.26H197.008V21.34C197.008 23.536 195.64 25.192 192.688 25.192C191.068 25.192 189.628 24.4 189.628 22.924C189.628 21.088 191.932 20.26 195.748 20.26Z" fill="#6CF6FF"/>
</svg>
